<?xml version="1.0" encoding="UTF-8" standalone="no"?>
<!-- Created with Inkscape (http://www.inkscape.org/) -->

<svg
   xmlns:dc="http://purl.org/dc/elements/1.1/"
   xmlns:cc="http://creativecommons.org/ns#"
   xmlns:rdf="http://www.w3.org/1999/02/22-rdf-syntax-ns#"
   xmlns:svg="http://www.w3.org/2000/svg"
   xmlns="http://www.w3.org/2000/svg"
   xmlns:sodipodi="http://sodipodi.sourceforge.net/DTD/sodipodi-0.dtd"
   xmlns:inkscape="http://www.inkscape.org/namespaces/inkscape"
   width="612"
   height="792"
   viewBox="0 0 161.925 209.55001"
   version="1.1"
   id="svg8"
   inkscape:version="0.92.3 (2405546, 2018-03-11)"
   sodipodi:docname="leanpub-cover.svg"
   inkscape:export-filename="/home/lorendre/github/madeindjs/api_on_rails/img/leanpub-cover.png"
   inkscape:export-xdpi="400"
   inkscape:export-ydpi="400">
  <defs
     id="defs2" />
  <sodipodi:namedview
     id="base"
     pagecolor="#ffffff"
     bordercolor="#666666"
     borderopacity="1.0"
     inkscape:pageopacity="0.0"
     inkscape:pageshadow="2"
     inkscape:zoom="0.33224978"
     inkscape:cx="356.56877"
     inkscape:cy="-38.397555"
     inkscape:document-units="mm"
     inkscape:current-layer="layer1"
     showgrid="false"
     inkscape:window-width="1009"
     inkscape:window-height="1016"
     inkscape:window-x="911"
     inkscape:window-y="27"
     inkscape:window-maximized="0"
     inkscape:pagecheckerboard="true"
     units="px" />
  <metadata
     id="metadata5">
    <rdf:RDF>
      <cc:Work
         rdf:about="">
        <dc:format>image/svg+xml</dc:format>
        <dc:type
           rdf:resource="http://purl.org/dc/dcmitype/StillImage" />
        <dc:title></dc:title>
      </cc:Work>
    </rdf:RDF>
  </metadata>
  <g
     inkscape:label="Calque 1"
     inkscape:groupmode="layer"
     id="layer1"
     transform="translate(0,-87.449992)">
    <rect
       style="fill:#ffffff;fill-opacity:0.98039216;stroke-width:1.23020697"
       id="rect29"
       width="161.925"
       height="209.55"
       x="0"
       y="87.449989" />
    <text
       xml:space="preserve"
       style="font-style:normal;font-weight:normal;font-size:10.58333302px;line-height:1.25;font-family:sans-serif;letter-spacing:0px;word-spacing:0px;opacity:0.98000004;fill:#000000;fill-opacity:1;stroke:none;stroke-width:0.26458332"
       x="20.040949"
       y="288.13684"
       id="text4520"><tspan
         sodipodi:role="line"
         x="20.040949"
         y="288.13684"
         style="font-style:normal;font-variant:normal;font-weight:bold;font-stretch:normal;font-size:6.3499999px;line-height:1;font-family:Courier;-inkscape-font-specification:'Courier Bold';fill:#808080;stroke-width:0.26458332"
         id="tspan69">{&quot;author&quot;: &quot;Alexandre Rousseau&quot;}</tspan></text>
    <g
       transform="matrix(0.84633324,0,0,0.84633324,4.7925084,-29.254983)"
       id="layer1-3"
       inkscape:label="Calque 1">
      <g
         transform="translate(-7.0815689,124.80674)"
         id="g43">
        <text
           xml:space="preserve"
           style="font-style:normal;font-weight:normal;font-size:10.58333302px;line-height:1.25;font-family:sans-serif;letter-spacing:0px;word-spacing:0px;opacity:0.98000004;fill:#000000;fill-opacity:1;stroke:none;stroke-width:0.26458332"
           x="37.533237"
           y="171.96748"
           id="text4520-6"><tspan
             sodipodi:role="line"
             x="37.533237"
             y="171.96748"
             style="font-style:normal;font-variant:normal;font-weight:bold;font-stretch:normal;font-size:14.11111069px;font-family:Courier;-inkscape-font-specification:'Courier Bold';fill:#808080;stroke-width:0.26458332"
             id="tspan4524-0"><tspan
               style="fill:#3e4837"
               id="tspan23">&quot;</tspan><tspan
               id="tspan4600"
               style="font-style:normal;font-variant:normal;font-weight:bold;font-stretch:normal;font-size:14.11111069px;font-family:Courier;-inkscape-font-specification:'Courier Bold';fill:#800000;stroke-width:0.26458332">API<tspan
   style="fill:#333333"
   id="tspan28">on</tspan>Rails<tspan
   style="font-size:14.11111069px;fill:#3e4837;stroke-width:0.26458332"
   id="tspan4542-5">&quot;:</tspan>6</tspan><tspan
               style="fill:#3e4837"
               id="tspan27" /></tspan></text>
        <g
           id="g4649"
           transform="matrix(0.50557715,0,0,0.50557715,39.418763,91.576468)"
           style="fill:#d40000">
          <path
             id="path4628"
             d="m 7,139.2 h 79 c 0,0 -15.1,-68.9 34.9,-96.8 10.9,-5.3 45.6,-25.1 102.4,16.9 1.8,-1.5 3.5,-2.7 3.5,-2.7 0,0 -52,-51.9 -109.9,-46.1 C 87.8,13.1 52,39.6 31,74.6 10,109.6 7,139.2 7,139.2 Z"
             class="st0"
             inkscape:connector-curvature="0"
             style="fill:#d40000" />
          <path
             id="path4630"
             d="m 7,139.2 h 79 c 0,0 -15.1,-68.9 34.9,-96.8 10.9,-5.3 45.6,-25.1 102.4,16.9 1.8,-1.5 3.5,-2.7 3.5,-2.7 0,0 -52,-51.9 -109.9,-46.1 C 87.8,13.1 52,39.6 31,74.6 10,109.6 7,139.2 7,139.2 Z"
             class="st0"
             inkscape:connector-curvature="0"
             style="fill:#d40000" />
          <path
             id="path4632"
             d="m 7,138.77025 h 79 c 0,0 -15.1,-68.900002 34.9,-96.800002 10.9,-5.3 45.6,-25.1 102.4,16.9 1.8,-1.5 3.5,-2.7 3.5,-2.7 0,0 -52,-51.9000005 -109.9,-46.1 -29.2,2.6 -65,29.1 -86,64.1 C 9.9,109.17025 7,138.77025 7,138.77025 Z M 171.6,15.670248 172,8.9702475 c -0.9,-0.5 -3.4,-1.7 -9.7,-3.5 l -0.4,6.6000005 c 3.3,1.1 6.5,2.3 9.7,3.6 z"
             class="st0"
             inkscape:connector-curvature="0"
             style="fill:#d40000" />
          <path
             id="path4634"
             d="m 162.1,37.3 -0.4,6.3 c 3.3,0.1 6.6,0.5 9.9,1.2 l 0.4,-6.2 c -3.4,-0.7 -6.7,-1.1 -9.9,-1.3 z m -37,-31.2 h 1 l -2,-6.1 c -3.1,0 -6.3,0.2 -9.6,0.6 l 1.9,5.9 c 2.9,-0.3 5.8,-0.4 8.7,-0.4 z m 4.8,36.8 2.3,6.9 c 2.9,-1.4 5.8,-2.6 8.7,-3.5 l -2.2,-6.6 c -3.4,1 -6.3,2.1 -8.8,3.2 z M 84.5,16.6 80,9.7 C 77.5,11 74.9,12.4 72.2,14 l 4.6,7 c 2.6,-1.6 5.1,-3.1 7.7,-4.4 z m 20.5,45 4.8,7.2 c 1.7,-2.5 3.7,-4.8 5.9,-7.1 l -4.5,-6.8 c -2.3,2.1 -4.4,4.4 -6.2,6.7 z m -14.5,32.2 8.1,6.4 c 0.4,-3.9 1.1,-7.8 2.1,-11.7 l -7.2,-5.7 c -1.3,3.7 -2.2,7.4 -3,11 z M 46.7,46.3 39.6,40.1 c -2.6,2.5 -5.1,5 -7.4,7.5 l 7.7,6.6 c 2.1,-2.7 4.4,-5.4 6.8,-7.9 z M 16.5,91 5,86.8 c -1.9,4.3 -4,9.3 -5,12 l 11.5,4.2 c 1.3,-3.4 3.4,-8.3 5,-12 z M 89,119.2 c 0.2,5.3 0.7,9.6 1.2,12.6 l 12,4.3 c -0.9,-3.9 -1.8,-8.3 -2.4,-13 z"
             class="st0"
             inkscape:connector-curvature="0"
             style="fill:#d40000" />
        </g>
        <text
           xml:space="preserve"
           style="font-style:normal;font-weight:normal;font-size:10.58333302px;line-height:1.25;font-family:sans-serif;text-align:center;letter-spacing:0px;word-spacing:0px;text-anchor:middle;fill:#3e4837;fill-opacity:1;stroke:none;stroke-width:0.26458332"
           x="23.869791"
           y="160.68665"
           id="text3724"><tspan
             sodipodi:role="line"
             id="tspan3722"
             x="23.869791"
             y="160.68665"
             style="font-style:normal;font-variant:normal;font-weight:normal;font-stretch:normal;font-size:70.55555725px;font-family:'DejaVu Sans Mono';-inkscape-font-specification:'DejaVu Sans Mono';text-align:center;text-anchor:middle;fill:#3e4837;stroke-width:0.26458332">{</tspan></text>
        <text
           xml:space="preserve"
           style="font-style:normal;font-weight:normal;font-size:10.58333302px;line-height:1.25;font-family:sans-serif;text-align:center;letter-spacing:0px;word-spacing:0px;text-anchor:middle;fill:#3e4837;fill-opacity:1;stroke:none;stroke-width:0.26458332"
           x="170.2589"
           y="160.68665"
           id="text3724-3"><tspan
             sodipodi:role="line"
             id="tspan3722-6"
             x="170.2589"
             y="160.68665"
             style="font-style:normal;font-variant:normal;font-weight:normal;font-stretch:normal;font-size:70.55555725px;font-family:'DejaVu Sans Mono';-inkscape-font-specification:'DejaVu Sans Mono';text-align:center;text-anchor:middle;fill:#3e4837;stroke-width:0.26458332">}</tspan></text>
      </g>
    </g>
  </g>
  <style
     id="style4624">.st0{fill:#c00}</style>
  <style
     id="style4624-5">.st0{fill:#c00}</style>
</svg>
